<svg xmlns="http://www.w3.org/2000/svg" width="72" height="72" fill="none" viewBox="0 0 72 72"><rect width="72" height="72" fill="#E7E4F2" rx="36"/><path stroke="#171321" stroke-linecap="square" stroke-width="2" d="M36 11.833a24.166 24.166 0 0121.996 14.158M38.5 16l-4.167-4.167L38.5 7.667M11.833 36a24.167 24.167 0 0113.469-21.67"/><path stroke="#171321" stroke-linecap="square" stroke-width="2" d="M16 33.5l-4.167 4.167L7.667 33.5M36 60.167A24.167 24.167 0 0114 46"/><path stroke="#171321" stroke-linecap="square" stroke-width="2" d="M33.5 56l4.167 4.167-4.167 4.166M60.167 36a24.167 24.167 0 01-14.151 21.993"/><path stroke="#171321" stroke-linecap="square" stroke-width="2" d="M56 38.5l4.167-4.167 4.166 4.167"/><path fill="#FF9D73" fill-rule="evenodd" stroke="#171321" stroke-linecap="square" stroke-width="2" d="M38.778 21h-5.556l-.376 3.765c-.902.252-1.76.61-2.56 1.06l-2.928-2.396-3.929 3.929 2.397 2.929c-.45.799-.809 1.657-1.061 2.559L21 33.222v5.556l3.765.376c.252.902.61 1.76 1.06 2.56l-2.396 2.928 3.929 3.929 2.929-2.397c.8.45 1.657.809 2.559 1.061L33.222 51h5.556l.376-3.765a11.57 11.57 0 002.56-1.06l2.928 2.396 3.929-3.929-2.397-2.929c.45-.799.809-1.657 1.061-2.559L51 38.778v-5.556l-3.765-.376a11.595 11.595 0 00-1.06-2.56l2.396-2.928-3.929-3.929-2.929 2.397c-.8-.45-1.657-.809-2.559-1.061L38.778 21zM36 43.222a7.222 7.222 0 100-14.444 7.222 7.222 0 000 14.444z" clip-rule="evenodd"/></svg>